<svg id="visual" viewBox="0 0 900 100" width="900" height="100" xmlns="http://www.w3.org/2000/svg" xmlns:xlink="http://www.w3.org/1999/xlink" version="1.1"><rect x="0" y="0" width="900" height="100" fill="#0c0e38"></rect><path d="M0 43L82 43L82 64L164 64L164 46L245 46L245 58L327 58L327 62L409 62L409 44L491 44L491 65L573 65L573 62L655 62L655 65L736 65L736 57L818 57L818 64L900 64L900 50L900 0L900 0L818 0L818 0L736 0L736 0L655 0L655 0L573 0L573 0L491 0L491 0L409 0L409 0L327 0L327 0L245 0L245 0L164 0L164 0L82 0L82 0L0 0Z" fill="#484c9b"></path><path d="M0 43L82 43L82 29L164 29L164 42L245 42L245 31L327 31L327 32L409 32L409 32L491 32L491 33L573 33L573 43L655 43L655 28L736 28L736 41L818 41L818 28L900 28L900 36L900 0L900 0L818 0L818 0L736 0L736 0L655 0L655 0L573 0L573 0L491 0L491 0L409 0L409 0L327 0L327 0L245 0L245 0L164 0L164 0L82 0L82 0L0 0Z" fill="#343884"></path><path d="M0 11L82 11L82 21L164 21L164 25L245 25L245 15L327 15L327 21L409 21L409 29L491 29L491 20L573 20L573 18L655 18L655 12L736 12L736 10L818 10L818 23L900 23L900 10L900 0L900 0L818 0L818 0L736 0L736 0L655 0L655 0L573 0L573 0L491 0L491 0L409 0L409 0L327 0L327 0L245 0L245 0L164 0L164 0L82 0L82 0L0 0Z" fill="#20246d"></path></svg>