<svg id="visual" viewBox="0 0 1080 100" width="1080" height="100" xmlns="http://www.w3.org/2000/svg" xmlns:xlink="http://www.w3.org/1999/xlink" version="1.1"><rect x="0" y="0" width="1080" height="100" fill="#20246d"></rect><path d="M0 42L22.5 47.7C45 53.3 90 64.7 135 68.7C180 72.7 225 69.3 270 69C315 68.7 360 71.3 405 65.3C450 59.3 495 44.7 540 39.8C585 35 630 40 675 47.7C720 55.3 765 65.7 810 62.7C855 59.7 900 43.3 945 37C990 30.7 1035 34.3 1057.5 36.2L1080 38L1080 0L1057.5 0C1035 0 990 0 945 0C900 0 855 0 810 0C765 0 720 0 675 0C630 0 585 0 540 0C495 0 450 0 405 0C360 0 315 0 270 0C225 0 180 0 135 0C90 0 45 0 22.5 0L0 0Z" fill="#20246d"></path><path d="M0 52L22.5 53.2C45 54.3 90 56.7 135 51.5C180 46.3 225 33.7 270 29.3C315 25 360 29 405 35.7C450 42.3 495 51.7 540 49.8C585 48 630 35 675 32.5C720 30 765 38 810 44.3C855 50.7 900 55.3 945 53.3C990 51.3 1035 42.7 1057.5 38.3L1080 34L1080 0L1057.5 0C1035 0 990 0 945 0C900 0 855 0 810 0C765 0 720 0 675 0C630 0 585 0 540 0C495 0 450 0 405 0C360 0 315 0 270 0C225 0 180 0 135 0C90 0 45 0 22.5 0L0 0Z" fill="#8d3175"></path><path d="M0 19L22.5 21.8C45 24.7 90 30.3 135 30.3C180 30.3 225 24.7 270 24.3C315 24 360 29 405 31.3C450 33.7 495 33.3 540 33C585 32.7 630 32.3 675 32.8C720 33.3 765 34.7 810 34.3C855 34 900 32 945 29.7C990 27.3 1035 24.7 1057.5 23.3L1080 22L1080 0L1057.5 0C1035 0 990 0 945 0C900 0 855 0 810 0C765 0 720 0 675 0C630 0 585 0 540 0C495 0 450 0 405 0C360 0 315 0 270 0C225 0 180 0 135 0C90 0 45 0 22.5 0L0 0Z" fill="#d3596b"></path><path d="M0 7L22.5 6.8C45 6.7 90 6.3 135 7.8C180 9.3 225 12.7 270 14.3C315 16 360 16 405 15C450 14 495 12 540 11.8C585 11.7 630 13.3 675 12.7C720 12 765 9 810 10.8C855 12.7 900 19.3 945 19.7C990 20 1035 14 1057.5 11L1080 8L1080 0L1057.5 0C1035 0 990 0 945 0C900 0 855 0 810 0C765 0 720 0 675 0C630 0 585 0 540 0C495 0 450 0 405 0C360 0 315 0 270 0C225 0 180 0 135 0C90 0 45 0 22.5 0L0 0Z" fill="#f79862"></path></svg>