<svg id="visual" viewBox="0 0 960 300" width="960" height="300" xmlns="http://www.w3.org/2000/svg" xmlns:xlink="http://www.w3.org/1999/xlink" version="1.1"><rect x="0" y="0" width="960" height="300" fill="#F79862"></rect><g transform="translate(476.9861764361457 145.54687535613897)"><path d="M29.7 -52.7C35.8 -48 36.1 -34.5 36.4 -24.2C36.8 -14 37.1 -7 41.9 2.7C46.7 12.5 55.8 25 55 34.4C54.1 43.8 43.3 50 32.5 55.9C21.7 61.9 10.8 67.4 1.1 65.6C-8.7 63.7 -17.3 54.4 -23.8 45.9C-30.3 37.5 -34.6 30 -36.8 22.5C-39 15 -39 7.5 -41.6 -1.5C-44.2 -10.5 -49.4 -21 -49 -31.7C-48.7 -42.4 -42.9 -53.2 -33.8 -56.1C-24.7 -59.1 -12.3 -54 -0.3 -53.6C11.8 -53.2 23.7 -57.3 29.7 -52.7" fill="#66b2b2"></path></g></svg>