<svg id="visual" viewBox="0 0 960 300" width="960" height="300" xmlns="http://www.w3.org/2000/svg" xmlns:xlink="http://www.w3.org/1999/xlink" version="1.1"><rect x="0" y="0" width="960" height="300" fill="#F79862"></rect><g transform="translate(488.4817359380315 152.4326162800107)"><path d="M30.1 -56.5C35.5 -49 34 -33.9 35.7 -23.2C37.3 -12.5 42.2 -6.3 46.4 2.5C50.7 11.2 54.3 22.3 52.5 32.7C50.7 43.1 43.3 52.7 33.7 56.2C24 59.6 12 56.8 2.3 52.7C-7.3 48.7 -14.7 43.4 -25.5 40.7C-36.3 37.9 -50.6 37.7 -59.1 31.4C-67.6 25 -70.3 12.5 -69.9 0.3C-69.5 -12 -65.9 -24 -57.2 -30.1C-48.6 -36.1 -34.8 -36.2 -24.4 -40.9C-14 -45.6 -7 -54.8 2.7 -59.4C12.3 -64 24.7 -64.1 30.1 -56.5" fill="#66b2b2"></path></g></svg>