<svg id="visual" viewBox="0 0 960 300" width="960" height="300" xmlns="http://www.w3.org/2000/svg" xmlns:xlink="http://www.w3.org/1999/xlink" version="1.1"><rect x="0" y="0" width="960" height="300" fill="#1d2149"></rect><path d="M0 76L10.7 74.7C21.3 73.3 42.7 70.7 64 68.2C85.3 65.7 106.7 63.3 128 60.8C149.3 58.3 170.7 55.7 192 58.5C213.3 61.3 234.7 69.7 256 66.2C277.3 62.7 298.7 47.3 320 38.7C341.3 30 362.7 28 384 30C405.3 32 426.7 38 448 45.5C469.3 53 490.7 62 512 66.5C533.3 71 554.7 71 576 71.5C597.3 72 618.7 73 640 69.7C661.3 66.3 682.7 58.7 704 51.8C725.3 45 746.7 39 768 41.2C789.3 43.3 810.7 53.7 832 59.8C853.3 66 874.7 68 896 62.7C917.3 57.3 938.7 44.7 949.3 38.3L960 32L960 0L949.3 0C938.7 0 917.3 0 896 0C874.7 0 853.3 0 832 0C810.7 0 789.3 0 768 0C746.7 0 725.3 0 704 0C682.7 0 661.3 0 640 0C618.7 0 597.3 0 576 0C554.7 0 533.3 0 512 0C490.7 0 469.3 0 448 0C426.7 0 405.3 0 384 0C362.7 0 341.3 0 320 0C298.7 0 277.3 0 256 0C234.7 0 213.3 0 192 0C170.7 0 149.3 0 128 0C106.7 0 85.3 0 64 0C42.7 0 21.3 0 10.7 0L0 0Z" fill="#41477c"></path><path d="M0 65L10.7 58.5C21.3 52 42.7 39 64 36.8C85.3 34.7 106.7 43.3 128 44.5C149.3 45.7 170.7 39.3 192 40.2C213.3 41 234.7 49 256 51C277.3 53 298.7 49 320 47C341.3 45 362.7 45 384 45.8C405.3 46.7 426.7 48.3 448 44.7C469.3 41 490.7 32 512 32.8C533.3 33.7 554.7 44.3 576 49.3C597.3 54.3 618.7 53.7 640 53C661.3 52.3 682.7 51.7 704 53.5C725.3 55.3 746.7 59.7 768 62.8C789.3 66 810.7 68 832 64.8C853.3 61.7 874.7 53.3 896 50.5C917.3 47.7 938.7 50.3 949.3 51.7L960 53L960 0L949.3 0C938.7 0 917.3 0 896 0C874.7 0 853.3 0 832 0C810.7 0 789.3 0 768 0C746.7 0 725.3 0 704 0C682.7 0 661.3 0 640 0C618.7 0 597.3 0 576 0C554.7 0 533.3 0 512 0C490.7 0 469.3 0 448 0C426.7 0 405.3 0 384 0C362.7 0 341.3 0 320 0C298.7 0 277.3 0 256 0C234.7 0 213.3 0 192 0C170.7 0 149.3 0 128 0C106.7 0 85.3 0 64 0C42.7 0 21.3 0 10.7 0L0 0Z" fill="#3e4477"></path><path d="M0 30L10.7 27.7C21.3 25.3 42.7 20.7 64 21.5C85.3 22.3 106.7 28.7 128 29.2C149.3 29.7 170.7 24.3 192 22.7C213.3 21 234.7 23 256 26.2C277.3 29.3 298.7 33.7 320 34.3C341.3 35 362.7 32 384 29.2C405.3 26.3 426.7 23.7 448 22.2C469.3 20.7 490.7 20.3 512 21.5C533.3 22.7 554.7 25.3 576 27.7C597.3 30 618.7 32 640 35.2C661.3 38.3 682.7 42.7 704 47.5C725.3 52.3 746.7 57.7 768 56.5C789.3 55.3 810.7 47.7 832 45.8C853.3 44 874.7 48 896 45.8C917.3 43.7 938.7 35.3 949.3 31.2L960 27L960 0L949.3 0C938.7 0 917.3 0 896 0C874.7 0 853.3 0 832 0C810.7 0 789.3 0 768 0C746.7 0 725.3 0 704 0C682.7 0 661.3 0 640 0C618.7 0 597.3 0 576 0C554.7 0 533.3 0 512 0C490.7 0 469.3 0 448 0C426.7 0 405.3 0 384 0C362.7 0 341.3 0 320 0C298.7 0 277.3 0 256 0C234.7 0 213.3 0 192 0C170.7 0 149.3 0 128 0C106.7 0 85.3 0 64 0C42.7 0 21.3 0 10.7 0L0 0Z" fill="#3c4172"></path><path d="M0 22L10.7 22.5C21.3 23 42.7 24 64 23.7C85.3 23.3 106.7 21.7 128 23C149.3 24.3 170.7 28.7 192 29.3C213.3 30 234.7 27 256 29.3C277.3 31.7 298.7 39.3 320 39.7C341.3 40 362.7 33 384 32.5C405.3 32 426.7 38 448 39.2C469.3 40.3 490.7 36.7 512 38.2C533.3 39.7 554.7 46.3 576 47.7C597.3 49 618.7 45 640 43C661.3 41 682.7 41 704 41.2C725.3 41.3 746.7 41.7 768 42.5C789.3 43.3 810.7 44.7 832 44.2C853.3 43.7 874.7 41.3 896 40.7C917.3 40 938.7 41 949.3 41.5L960 42L960 0L949.3 0C938.7 0 917.3 0 896 0C874.7 0 853.3 0 832 0C810.7 0 789.3 0 768 0C746.7 0 725.3 0 704 0C682.7 0 661.3 0 640 0C618.7 0 597.3 0 576 0C554.7 0 533.3 0 512 0C490.7 0 469.3 0 448 0C426.7 0 405.3 0 384 0C362.7 0 341.3 0 320 0C298.7 0 277.3 0 256 0C234.7 0 213.3 0 192 0C170.7 0 149.3 0 128 0C106.7 0 85.3 0 64 0C42.7 0 21.3 0 10.7 0L0 0Z" fill="#393e6d"></path><path d="M0 41L10.7 38C21.3 35 42.7 29 64 29.3C85.3 29.7 106.7 36.3 128 36.5C149.3 36.7 170.7 30.3 192 27C213.3 23.7 234.7 23.3 256 24.7C277.3 26 298.7 29 320 29.2C341.3 29.3 362.7 26.7 384 23.2C405.3 19.7 426.7 15.3 448 13.5C469.3 11.7 490.7 12.3 512 14.7C533.3 17 554.7 21 576 20.5C597.3 20 618.7 15 640 18.3C661.3 21.7 682.7 33.3 704 38.8C725.3 44.3 746.7 43.7 768 42C789.3 40.3 810.7 37.7 832 36C853.3 34.3 874.7 33.7 896 34.5C917.3 35.3 938.7 37.7 949.3 38.8L960 40L960 0L949.3 0C938.7 0 917.3 0 896 0C874.7 0 853.3 0 832 0C810.7 0 789.3 0 768 0C746.7 0 725.3 0 704 0C682.7 0 661.3 0 640 0C618.7 0 597.3 0 576 0C554.7 0 533.3 0 512 0C490.7 0 469.3 0 448 0C426.7 0 405.3 0 384 0C362.7 0 341.3 0 320 0C298.7 0 277.3 0 256 0C234.7 0 213.3 0 192 0C170.7 0 149.3 0 128 0C106.7 0 85.3 0 64 0C42.7 0 21.3 0 10.7 0L0 0Z" fill="#373c69"></path><path d="M0 26L10.7 25.7C21.3 25.3 42.7 24.7 64 22.2C85.3 19.7 106.7 15.3 128 16.3C149.3 17.3 170.7 23.7 192 23.7C213.3 23.7 234.7 17.3 256 16.8C277.3 16.3 298.7 21.7 320 21.3C341.3 21 362.7 15 384 15.5C405.3 16 426.7 23 448 27.3C469.3 31.7 490.7 33.3 512 29.5C533.3 25.7 554.7 16.3 576 15.5C597.3 14.7 618.7 22.3 640 22.5C661.3 22.7 682.7 15.3 704 12.2C725.3 9 746.7 10 768 13.5C789.3 17 810.7 23 832 23.7C853.3 24.3 874.7 19.7 896 18C917.3 16.3 938.7 17.7 949.3 18.3L960 19L960 0L949.3 0C938.7 0 917.3 0 896 0C874.7 0 853.3 0 832 0C810.7 0 789.3 0 768 0C746.7 0 725.3 0 704 0C682.7 0 661.3 0 640 0C618.7 0 597.3 0 576 0C554.7 0 533.3 0 512 0C490.7 0 469.3 0 448 0C426.7 0 405.3 0 384 0C362.7 0 341.3 0 320 0C298.7 0 277.3 0 256 0C234.7 0 213.3 0 192 0C170.7 0 149.3 0 128 0C106.7 0 85.3 0 64 0C42.7 0 21.3 0 10.7 0L0 0Z" fill="#353964"></path><path d="M0 22L10.7 21.8C21.3 21.7 42.7 21.3 64 19.3C85.3 17.3 106.7 13.7 128 14.5C149.3 15.3 170.7 20.7 192 22.5C213.3 24.3 234.7 22.7 256 21.3C277.3 20 298.7 19 320 19.3C341.3 19.7 362.7 21.3 384 21.3C405.3 21.3 426.7 19.7 448 18.3C469.3 17 490.7 16 512 15.5C533.3 15 554.7 15 576 15C597.3 15 618.7 15 640 16.2C661.3 17.3 682.7 19.7 704 20C725.3 20.3 746.7 18.7 768 17.3C789.3 16 810.7 15 832 13.3C853.3 11.7 874.7 9.3 896 10C917.3 10.7 938.7 14.3 949.3 16.2L960 18L960 0L949.3 0C938.7 0 917.3 0 896 0C874.7 0 853.3 0 832 0C810.7 0 789.3 0 768 0C746.7 0 725.3 0 704 0C682.7 0 661.3 0 640 0C618.7 0 597.3 0 576 0C554.7 0 533.3 0 512 0C490.7 0 469.3 0 448 0C426.7 0 405.3 0 384 0C362.7 0 341.3 0 320 0C298.7 0 277.3 0 256 0C234.7 0 213.3 0 192 0C170.7 0 149.3 0 128 0C106.7 0 85.3 0 64 0C42.7 0 21.3 0 10.7 0L0 0Z" fill="#32375f"></path><path d="M0 10L10.7 10.7C21.3 11.3 42.7 12.7 64 12.3C85.3 12 106.7 10 128 9C149.3 8 170.7 8 192 8.5C213.3 9 234.7 10 256 10.2C277.3 10.3 298.7 9.7 320 8.3C341.3 7 362.7 5 384 5.3C405.3 5.7 426.7 8.3 448 8.5C469.3 8.7 490.7 6.3 512 5.3C533.3 4.3 554.7 4.7 576 5.3C597.3 6 618.7 7 640 6.5C661.3 6 682.7 4 704 4.2C725.3 4.3 746.7 6.7 768 8.8C789.3 11 810.7 13 832 13C853.3 13 874.7 11 896 10.3C917.3 9.7 938.7 10.3 949.3 10.7L960 11L960 0L949.3 0C938.7 0 917.3 0 896 0C874.7 0 853.3 0 832 0C810.7 0 789.3 0 768 0C746.7 0 725.3 0 704 0C682.7 0 661.3 0 640 0C618.7 0 597.3 0 576 0C554.7 0 533.3 0 512 0C490.7 0 469.3 0 448 0C426.7 0 405.3 0 384 0C362.7 0 341.3 0 320 0C298.7 0 277.3 0 256 0C234.7 0 213.3 0 192 0C170.7 0 149.3 0 128 0C106.7 0 85.3 0 64 0C42.7 0 21.3 0 10.7 0L0 0Z" fill="#30345a"></path></svg>